<?xml version="1.0" encoding="UTF-8"?>
<!DOCTYPE svg PUBLIC "-//W3C//DTD SVG 1.1//EN" "http://www.w3.org/Graphics/SVG/1.1/DTD/svg11.dtd">
<!-- Creator: CorelDRAW 2021.5 -->
<svg xmlns="http://www.w3.org/2000/svg" xml:space="preserve" width="49.3739mm" height="20.783mm" version="1.1" style="shape-rendering:geometricPrecision; text-rendering:geometricPrecision; image-rendering:optimizeQuality; fill-rule:evenodd; clip-rule:evenodd"
viewBox="0 0 42.12 17.73"
 xmlns:xlink="http://www.w3.org/1999/xlink"
 xmlns:xodm="http://www.corel.com/coreldraw/odm/2003">
 <defs>
  <style type="text/css">
   <![CDATA[
    .fil2 {fill:#071952}
    .fil3 {fill:#00B0FF;fill-opacity:0.788235}
    .fil1 {fill:#FDBB05;fill-rule:nonzero;fill-opacity:0.788235}
    .fil0 {fill:#071952}
   ]]>
  </style>
 </defs>
 <g id="Layer_x0020_1">
  <metadata id="CorelCorpID_0Corel-Layer"/>
  <path class="fil0" d="M35.52 1.83l0 0 0 0 0 0 0 0c0.02,0 0.05,0 0.07,0l0 -0 0.33 0 0.48 0 1.89 0 3.83 0c-0.11,2.91 -2.51,5.25 -5.44,5.26l0 0 -0.68 0 -0.8 0 -0.18 0 -0.8 0 -0.1 0 -0.99 0 -2.16 0 -1.16 0c0,-0.02 0,-0.05 0,-0.07 0.28,-2.91 2.74,-5.19 5.72,-5.19z"/>
  <path class="fil0" d="M34.43 8.13l0.01 0 0 0c0.02,0 0.05,0 0.07,0l0 -0 0.33 0 0.99 0 0.12 0 0.13 0 0.66 0 0.22 0 0.77 0 0.48 0 1.81 0 1.03 0c-0.11,2.91 -2.51,5.25 -5.44,5.26l0 0 -0.01 0 -1.02 0 -0.64 0 -1.89 0 -2.16 0 -1.16 0c0,-0.02 0,-0.05 0,-0.07 0.28,-2.91 2.74,-5.19 5.72,-5.19z"/>
  <g id="_1658776767424">
   <path class="fil0" d="M5.73 7.09l0 0 0 0 0 0 0 0c0.02,-0 0.05,-0 0.07,-0l0 0 0.33 0 0.48 0 1.89 0 3.83 0c-0.11,-2.91 -2.51,-5.25 -5.44,-5.26l0 -0 -0.68 0 -0.8 0 -0.18 0 -0.8 0 -0.1 0 -0.99 0 -2.16 0 -1.16 0c0,0.02 0,0.05 0,0.07 0.28,2.91 2.74,5.19 5.72,5.19z"/>
   <path class="fil0" d="M5.72 8.13l0.01 0 0 0c0.02,0 0.05,0 0.07,0l0 -0 0.33 0 0.99 0 0.12 0 0.13 0 0.66 0 0.22 0 0.77 0 0.48 0 1.81 0 1.03 0c-0.11,2.91 -2.51,5.25 -5.44,5.26l0 0 -0.01 0 -1.02 0 -0.64 0 -1.89 0 -2.16 0 -1.16 0c0,-0.02 0,-0.05 0,-0.07 0.28,-2.91 2.74,-5.19 5.72,-5.19z"/>
  </g>
  <path class="fil1" d="M14.02 10.08c1.1,0.78 1.37,2.3 0.59,3.4 -0.78,1.1 -2.3,1.37 -3.4,0.59 -0.34,-0.24 -0.67,-0.52 -0.98,-0.82 -0.32,-0.31 -0.6,-0.64 -0.84,-0.97 -1.25,-1.73 -1.68,-3.8 -1.37,-5.76 0.31,-1.96 1.37,-3.8 3.1,-5.05 1.73,-1.25 3.8,-1.68 5.76,-1.37 1.96,0.31 3.8,1.37 5.05,3.1 0.89,1.23 1.36,2.63 1.45,4.04l0.01 3.63 -0.76 0.24c-0.16,0.33 -0.34,0.64 -0.54,0.95l-0.01 -0.02c-0.32,0.48 -0.7,0.92 -1.12,1.31 -0.63,-0.59 -1.16,-1.29 -1.57,-2.06l-0.87 -0.11 0 -0.42 0 -2.35 -0 -0.48c-0,-0.03 -0,-0.07 -0,-0.1l-0 -0c0,-0.02 0,-0.04 0,-0.06l-0 -0.1c-0.01,-0.56 -0.19,-1.12 -0.54,-1.6 -0.47,-0.64 -1.14,-1.04 -1.86,-1.15 -0.72,-0.12 -1.49,0.04 -2.13,0.51 -0.64,0.47 -1.04,1.14 -1.15,1.86 -0.12,0.72 0.04,1.49 0.51,2.13 0.1,0.14 0.2,0.26 0.3,0.36 0.11,0.11 0.23,0.21 0.37,0.3z"/>
  <circle class="fil2" cx="15.66" cy="7.74" r="1.97"/>
  <circle class="fil2" cx="26.23" cy="7.74" r="1.97"/>
  <path class="fil3" d="M23.4 7.74l0.04 -0.48c0.12,-0.71 0.51,-1.38 1.15,-1.84 0.64,-0.46 1.41,-0.62 2.13,-0.51 0.72,0.12 1.39,0.51 1.86,1.15 0.46,0.64 0.62,1.41 0.51,2.13 -0.11,0.72 -0.51,1.39 -1.15,1.86 -0.64,0.46 -1.41,0.62 -2.13,0.51 -0.69,-0.11 -1.34,-0.48 -1.8,-1.08l0 5.66c0.34,0.1 0.69,0.18 1.04,0.24 1.96,0.31 4.03,-0.12 5.76,-1.37 1.73,-1.25 2.79,-3.09 3.1,-5.05 0.31,-1.96 -0.12,-4.03 -1.37,-5.76 -1.25,-1.73 -3.09,-2.79 -5.05,-3.1 -1.96,-0.31 -4.03,0.12 -5.76,1.37 -1.73,1.25 -2.79,3.09 -3.1,5.05 -0.07,0.43 -0.1,0.87 -0.1,1.31 0,-0.02 0,-0.04 0,-0.07l0.01 -0.02 0 4.72 0.49 0.07 0.89 0.81c0,0 0.65,0.59 0.75,0.58 0.1,-0.01 1.81,-1.08 1.81,-1.08l0.93 -0.52 0 -4.33 0 -0.25z"/>
  <path class="fil0" d="M20.96 9.11c1.44,0 2.61,1.17 2.61,2.61 0,0.05 -0.01,0.18 -0.01,0.34 -0.1,2.24 -1.08,4.24 -2.61,5.67 -1.53,-1.43 -2.51,-3.44 -2.61,-5.67 -0,-0 0,0 -0,-0 -0.01,-0.18 -0.01,-0.35 0,-0.53 0.1,-1.35 1.23,-2.42 2.61,-2.42z"/>
 </g>
</svg>
