<?xml version="1.0" encoding="UTF-8"?>
<!DOCTYPE svg PUBLIC "-//W3C//DTD SVG 1.1//EN" "http://www.w3.org/Graphics/SVG/1.1/DTD/svg11.dtd">
<!-- Creator: CorelDRAW 2021.5 -->
<svg xmlns="http://www.w3.org/2000/svg" xml:space="preserve" width="51.7503mm" height="23.154mm" version="1.1" style="shape-rendering:geometricPrecision; text-rendering:geometricPrecision; image-rendering:optimizeQuality; fill-rule:evenodd; clip-rule:evenodd"
viewBox="0 0 46.3 20.71"
 xmlns:xlink="http://www.w3.org/1999/xlink"
 xmlns:xodm="http://www.corel.com/coreldraw/odm/2003">
 <defs>
  <style type="text/css">
   <![CDATA[
    .fil3 {fill:#071952}
    .fil4 {fill:#00B0FF;fill-opacity:0.788235}
    .fil2 {fill:#FDBB05;fill-rule:nonzero;fill-opacity:0.788235}
    .fil1 {fill:#071952}
    .fil0 {fill:white}
   ]]>
  </style>
 </defs>
 <g id="Layer_x0020_1">
  <metadata id="CorelCorpID_0Corel-Layer"/>
  <path class="fil0" d="M38.31 1.92l0.01 0 0 0c0.02,-0 0.05,-0 0.07,-0l6.85 0c0.59,0 1.06,0.48 1.06,1.06 0,0.05 -0,0.09 -0.01,0.14 -0.09,1.77 -0.87,3.37 -2.07,4.53 -0.34,0.33 -0.72,0.62 -1.12,0.88l0.99 0c0.59,0 1.06,0.48 1.06,1.06 0,0.05 -0,0.09 -0.01,0.14 -0.09,1.77 -0.87,3.37 -2.07,4.53 -1.22,1.18 -2.87,1.9 -4.69,1.91l0 0 -3.84 0c-0.18,0.16 -0.37,0.3 -0.57,0.45 -1.01,0.73 -2.11,1.22 -3.25,1.49 -1.18,0.28 -2.39,0.32 -3.58,0.13 -0.22,-0.04 -0.43,-0.08 -0.62,-0.12 -0.16,-0.04 -0.33,-0.08 -0.51,-0.14 -0.11,-0.02 -0.21,-0.06 -0.3,-0.11 -0.51,0.96 -1.17,1.82 -1.95,2.56 -0.41,0.39 -1.05,0.38 -1.45,-0 -0.91,-0.85 -1.66,-1.89 -2.19,-3.04 -0.51,-1.11 -0.82,-2.33 -0.87,-3.62l-0 0 -0 -0c-0,-0.02 -0,-0.04 -0,-0.07 -0,-0.08 -0,-0.17 -0,-0.27l-0 0c0,-0.06 0,-0.16 0.01,-0.32l0 -0.03 -0 -0c0.02,-0.32 0.08,-0.62 0.18,-0.91l0 -0.53c-0.5,0.4 -1.12,0.64 -1.8,0.67 0.11,0.26 0.19,0.52 0.24,0.8 0.16,0.91 -0.03,1.88 -0.61,2.7l-0 0c-0.58,0.82 -1.43,1.33 -2.34,1.48 -0.91,0.16 -1.88,-0.03 -2.7,-0.61 -0.21,-0.14 -0.4,-0.3 -0.6,-0.46 -0.19,-0.16 -0.37,-0.33 -0.56,-0.51 -0.03,-0.03 -0.07,-0.07 -0.1,-0.1 -0.82,0.35 -1.71,0.55 -2.66,0.55l0 0 -7.23 0c-0.59,0 -1.06,-0.48 -1.06,-1.06 0,-0.04 0,-0.09 0.01,-0.13 0,-0.03 0,-0.07 0.01,-0.1 0.19,-1.78 1.03,-3.37 2.29,-4.51 0.61,-0.56 1.32,-1.01 2.1,-1.32 -0.78,-0.32 -1.49,-0.77 -2.1,-1.32 -1.26,-1.14 -2.11,-2.73 -2.29,-4.51 -0,-0.03 -0.01,-0.06 -0.01,-0.1 -0.01,-0.04 -0.01,-0.09 -0.01,-0.13 0,-0.59 0.48,-1.06 1.06,-1.06l7.23 0 0 0c0.03,0 0.06,0 0.09,0 0.98,0.02 1.91,0.24 2.75,0.63 0.3,-0.29 0.63,-0.56 0.98,-0.82 1.01,-0.73 2.11,-1.22 3.25,-1.49 1.18,-0.28 2.39,-0.32 3.58,-0.13 1.19,0.19 2.33,0.61 3.36,1.24 0.25,0.16 0.5,0.33 0.74,0.51 0.06,-0.04 0.11,-0.09 0.17,-0.13 1.01,-0.73 2.11,-1.22 3.25,-1.49 1.18,-0.28 2.39,-0.32 3.58,-0.13 1.19,0.19 2.33,0.61 3.36,1.24 0.61,0.37 1.17,0.82 1.69,1.33 0.97,-0.49 2.06,-0.77 3.21,-0.77zm-4.4 1.11c0.02,0.02 0.04,0.04 0.07,0.06 -0.02,-0.02 -0.04,-0.04 -0.07,-0.06z"/>
  <path class="fil1" d="M38.31 2.98l0 0 0 0 0 0 0 0c0.02,0 0.05,0 0.07,0l0 -0 0.34 0 0.5 0 1.99 0 4.02 0c-0.11,3.05 -2.63,5.5 -5.71,5.51l0 0 -0.72 0 -0.84 0 -0.19 0 -0.84 0 -0.1 0 -1.04 0 -2.26 0 -1.22 0c0,-0.03 0,-0.05 0,-0.08 0.3,-3.05 2.87,-5.44 6,-5.44z"/>
  <path class="fil1" d="M37.17 9.58l0.01 0 0 0c0.02,0 0.05,0 0.07,0l0 -0 0.34 0 1.04 0 0.12 0 0.13 0 0.69 0 0.23 0 0.8 0 0.5 0 1.9 0 1.08 0c-0.11,3.05 -2.63,5.51 -5.71,5.51l0 0 -0.02 0 -1.07 0 -0.67 0 -1.99 0 -2.26 0 -1.22 0c0,-0.03 0,-0.05 0,-0.08 0.3,-3.05 2.87,-5.44 6,-5.44z"/>
  <g id="_1636546606800">
   <path class="fil1" d="M7.07 8.49l0 0 0 0 0 0 0 0c0.02,-0 0.05,-0 0.07,-0l0 0 0.34 0 0.5 0 1.99 0 4.02 0c-0.11,-3.05 -2.63,-5.51 -5.71,-5.51l0 -0 -0.72 0 -0.84 0 -0.19 0 -0.84 0 -0.1 0 -1.04 0 -2.26 0 -1.22 0c0,0.03 0,0.05 0,0.08 0.3,3.05 2.87,5.44 6,5.44z"/>
   <path class="fil1" d="M7.07 9.58l0.01 0 0 0c0.02,0 0.05,0 0.07,0l0 -0 0.34 0 1.04 0 0.12 0 0.13 0 0.69 0 0.23 0 0.8 0 0.5 0 1.9 0 1.08 0c-0.11,3.05 -2.63,5.51 -5.71,5.51l0 0 -0.02 0 -1.07 0 -0.67 0 -1.99 0 -2.26 0 -1.22 0c0,-0.03 0,-0.05 0,-0.08 0.3,-3.05 2.87,-5.44 6,-5.44z"/>
  </g>
  <path class="fil2" d="M15.77 11.62c1.16,0.81 1.44,2.41 0.62,3.57 -0.81,1.16 -2.41,1.44 -3.57,0.62 -0.36,-0.25 -0.7,-0.54 -1.03,-0.86 -0.33,-0.33 -0.63,-0.67 -0.88,-1.02 -1.31,-1.81 -1.76,-3.99 -1.44,-6.04 0.33,-2.06 1.44,-3.98 3.25,-5.3 1.81,-1.31 3.99,-1.76 6.04,-1.44 2.06,0.33 3.98,1.44 5.3,3.25 0.93,1.29 1.43,2.76 1.52,4.24l0.01 3.8 -0.8 0.25c-0.16,0.34 -0.35,0.67 -0.57,0.99l-0.02 -0.02c-0.34,0.5 -0.73,0.96 -1.17,1.38 -0.66,-0.62 -1.22,-1.35 -1.64,-2.16l-0.91 -0.11 0 -0.44 0 -2.46 -0 -0.51c-0,-0.04 -0,-0.07 -0,-0.11l-0 -0c0,-0.02 0,-0.04 0,-0.06l-0 -0.1c-0.02,-0.58 -0.2,-1.17 -0.57,-1.68 -0.49,-0.67 -1.2,-1.09 -1.95,-1.21 -0.76,-0.12 -1.56,0.05 -2.23,0.53 -0.67,0.49 -1.09,1.2 -1.21,1.95 -0.12,0.76 0.05,1.56 0.53,2.23 0.11,0.15 0.21,0.27 0.32,0.38 0.11,0.11 0.24,0.22 0.39,0.32z"/>
  <circle class="fil3" cx="17.49" cy="9.17" r="2.07"/>
  <circle class="fil3" cx="28.58" cy="9.17" r="2.07"/>
  <path class="fil4" d="M25.6 9.17l0.04 -0.5c0.12,-0.74 0.54,-1.44 1.2,-1.93 0.67,-0.49 1.48,-0.65 2.23,-0.53 0.75,0.12 1.46,0.53 1.95,1.21 0.49,0.67 0.65,1.48 0.53,2.23 -0.12,0.75 -0.53,1.46 -1.21,1.95 -0.67,0.49 -1.48,0.65 -2.23,0.53 -0.72,-0.12 -1.41,-0.5 -1.89,-1.13l0 5.93c0.36,0.11 0.72,0.19 1.09,0.25 2.05,0.33 4.23,-0.12 6.04,-1.44 1.81,-1.31 2.92,-3.24 3.25,-5.3 0.33,-2.05 -0.12,-4.23 -1.44,-6.04 -1.31,-1.81 -3.24,-2.92 -5.3,-3.25 -2.05,-0.33 -4.23,0.12 -6.04,1.44 -1.81,1.31 -2.92,3.24 -3.25,5.3 -0.07,0.45 -0.11,0.91 -0.1,1.37 0,-0.02 0,-0.05 0,-0.07l0.01 -0.02 0 4.95 0.52 0.07 0.93 0.85c0,0 0.68,0.62 0.79,0.61 0.11,-0.01 1.9,-1.14 1.9,-1.14l0.97 -0.55 0 -4.54 0 -0.26z"/>
  <path class="fil1" d="M23.05 10.6c1.51,0 2.74,1.23 2.74,2.74 0,0.05 -0.01,0.19 -0.01,0.35 -0.1,2.34 -1.13,4.45 -2.73,5.95 -1.6,-1.5 -2.63,-3.61 -2.73,-5.95 -0,-0 0,0 -0,-0 -0.01,-0.19 -0.01,-0.36 0,-0.55 0.1,-1.42 1.29,-2.54 2.73,-2.54z"/>
 </g>
</svg>
